<?xml version="1.0" encoding="UTF-8"?>
<svg xmlns="http://www.w3.org/2000/svg" xmlns:xlink="http://www.w3.org/1999/xlink" width="32px" height="32px" viewBox="0 0 32 32" version="1.1">
<g id="surface1">
<path style=" stroke:none;fill-rule:nonzero;fill:rgb(12.941177%,13.333334%,14.509805%);fill-opacity:1;" d="M 14.742188 31.886719 C 6.949219 31.308594 0.691406 25.019531 0.121094 17.21875 C -0.597656 7.4375 7.425781 -0.597656 17.21875 0.121094 C 25.042969 0.691406 31.308594 6.949219 31.878906 14.78125 C 32.597656 24.585938 24.542969 32.621094 14.742188 31.886719 Z M 10.769531 25.570312 C 11.664062 24.910156 12.832031 23.984375 14.382812 22.703125 C 15.808594 21.546875 15.816406 21.535156 16.214844 21.535156 C 16.660156 21.535156 16.660156 21.535156 20.246094 24.402344 C 21.628906 25.507812 22.855469 26.464844 22.96875 26.523438 C 23.160156 26.625 23.171875 26.617188 23.101562 26.390625 C 23.058594 26.269531 22.695312 25.113281 22.289062 23.820312 C 21.882812 22.542969 21.34375 20.847656 21.089844 20.0625 C 20.835938 19.28125 20.632812 18.480469 20.632812 18.285156 C 20.632812 17.941406 20.683594 17.898438 21.863281 17.117188 C 22.542969 16.671875 23.667969 15.878906 24.371094 15.351562 C 25.070312 14.832031 26.160156 14.050781 26.769531 13.621094 L 27.886719 12.851562 L 23.617188 12.789062 C 21.273438 12.75 19.230469 12.6875 19.089844 12.65625 C 18.761719 12.566406 18.582031 12.179688 18.277344 10.972656 C 17.910156 9.488281 17.382812 7.648438 17.035156 6.675781 C 16.84375 6.15625 16.589844 5.34375 16.457031 4.847656 C 16.316406 4.359375 16.183594 3.960938 16.152344 3.960938 C 16.113281 3.960938 15.9375 4.5625 15.757812 5.292969 C 15.574219 6.015625 15.238281 7.191406 15.023438 7.902344 C 14.800781 8.613281 14.464844 9.792969 14.261719 10.515625 C 14.070312 11.246094 13.847656 12.019531 13.773438 12.242188 L 13.644531 12.648438 L 9.101562 12.71875 C 6.601562 12.75 4.539062 12.800781 4.511719 12.820312 C 4.449219 12.890625 10.515625 17.105469 10.921875 17.28125 C 10.980469 17.300781 11.195312 17.433594 11.410156 17.5625 C 12.007812 17.941406 11.996094 18 10.492188 22.753906 C 9.855469 24.808594 9.4375 26.066406 9.285156 26.464844 C 9.203125 26.667969 9.203125 26.667969 9.5 26.472656 C 9.671875 26.363281 10.238281 25.957031 10.769531 25.570312 Z M 4.207031 20.9375 C 4.359375 20.804688 4.359375 20.773438 4.15625 20.5625 L 3.929688 20.316406 L 3.675781 20.570312 L 3.433594 20.816406 L 3.667969 21.109375 C 3.871094 21.355469 3.921875 21.375 3.972656 21.242188 C 4.011719 21.152344 4.113281 21.007812 4.207031 20.9375 Z M 25.894531 7.558594 C 25.8125 7.457031 25.742188 7.457031 25.601562 7.539062 C 25.425781 7.648438 25.425781 7.667969 25.578125 7.78125 C 25.804688 7.945312 26.066406 7.761719 25.894531 7.558594 Z M 25.894531 7.558594 "/>
<path style=" stroke:none;fill-rule:nonzero;fill:rgb(57.254905%,16.078432%,13.725491%);fill-opacity:1;" d="M 23.3125 27.410156 C 23.039062 27.132812 22.695312 26.839844 22.550781 26.746094 C 22.410156 26.667969 22.117188 26.28125 21.890625 25.90625 C 21.667969 25.519531 20.714844 24.046875 19.757812 22.625 C 18.8125 21.203125 17.65625 19.453125 17.199219 18.742188 L 16.355469 17.433594 L 16.355469 19.320312 C 16.355469 20.480469 16.394531 21.242188 16.457031 21.28125 C 16.519531 21.3125 16.558594 21.507812 16.558594 21.699219 C 16.558594 22.015625 16.539062 22.035156 16.367188 21.921875 C 16.164062 21.800781 16.214844 21.769531 14.691406 23.007812 C 12.34375 24.941406 10.230469 26.542969 9.195312 27.207031 C 8.96875 27.347656 8.738281 27.53125 8.675781 27.613281 C 8.503906 27.84375 8.421875 27.601562 8.574219 27.316406 C 8.636719 27.183594 8.828125 26.675781 8.980469 26.179688 C 9.132812 25.691406 9.316406 25.265625 9.386719 25.214844 C 9.457031 25.171875 9.964844 24.484375 10.515625 23.667969 C 11.0625 22.855469 11.753906 21.851562 12.039062 21.433594 C 12.332031 21.019531 12.902344 20.144531 13.308594 19.503906 C 13.703125 18.863281 14.261719 18.03125 14.539062 17.667969 C 15.003906 17.027344 15.136719 16.761719 14.964844 16.761719 C 14.914062 16.761719 14.546875 16.851562 14.128906 16.964844 C 13.714844 17.078125 13.257812 17.167969 13.125 17.167969 C 12.757812 17.167969 11.835938 16.519531 11.488281 16.019531 C 11.328125 15.777344 11.125 15.523438 11.03125 15.453125 C 10.929688 15.371094 10.871094 15.15625 10.871094 14.921875 C 10.871094 14.527344 10.871094 14.527344 11.277344 14.527344 C 11.5 14.527344 12.515625 14.730469 13.542969 14.984375 C 14.566406 15.238281 15.460938 15.441406 15.53125 15.441406 C 15.613281 15.441406 15.644531 14.375 15.65625 11.511719 C 15.65625 9.335938 15.695312 6.816406 15.734375 5.890625 C 15.777344 4.96875 15.765625 4.183594 15.714844 4.15625 C 15.664062 4.125 15.695312 3.929688 15.785156 3.71875 C 15.898438 3.445312 16 3.351562 16.183594 3.351562 C 16.40625 3.351562 16.445312 3.445312 16.75 4.53125 C 16.933594 5.179688 17.21875 6.066406 17.371094 6.5 C 17.675781 7.324219 18.226562 9.203125 18.582031 10.667969 C 18.914062 11.988281 19.066406 12.273438 19.464844 12.351562 C 19.902344 12.433594 19.960938 12.800781 19.546875 12.800781 C 19.292969 12.800781 18.792969 13.207031 18.792969 13.398438 C 18.792969 13.441406 18.683594 13.59375 18.550781 13.734375 C 18.429688 13.875 18.285156 14.070312 18.253906 14.160156 C 18.214844 14.253906 18.144531 14.324219 18.082031 14.324219 C 18.03125 14.324219 17.980469 14.394531 17.980469 14.476562 C 17.980469 14.566406 17.910156 14.660156 17.828125 14.691406 C 17.746094 14.730469 17.675781 14.8125 17.675781 14.894531 C 17.675781 14.964844 17.59375 15.074219 17.503906 15.136719 C 17.339844 15.238281 17.339844 15.238281 17.523438 15.199219 C 17.636719 15.167969 18.144531 15.035156 18.640625 14.882812 C 19.148438 14.742188 19.738281 14.566406 19.960938 14.507812 C 20.183594 14.445312 20.550781 14.34375 20.773438 14.273438 C 21 14.203125 21.363281 14.089844 21.585938 14.027344 C 22.480469 13.785156 23.84375 13.378906 24.179688 13.257812 C 25.253906 12.859375 26.921875 12.503906 27.867188 12.476562 C 28.476562 12.453125 28.851562 12.484375 28.851562 12.546875 C 28.851562 12.648438 28.261719 13.105469 26.71875 14.179688 C 26.238281 14.507812 25.304688 15.1875 24.625 15.695312 C 23.953125 16.191406 22.847656 16.976562 22.175781 17.421875 C 21.160156 18.09375 20.949219 18.277344 20.988281 18.4375 C 21.019531 18.550781 21.425781 19.828125 21.890625 21.28125 C 22.359375 22.734375 23 24.746094 23.3125 25.753906 C 23.628906 26.757812 23.933594 27.632812 23.984375 27.691406 C 24.078125 27.792969 24.003906 27.957031 23.882812 27.917969 C 23.851562 27.90625 23.597656 27.683594 23.3125 27.410156 Z M 23.3125 27.410156 "/>
<path style=" stroke:none;fill-rule:nonzero;fill:rgb(57.254905%,16.078432%,13.725491%);fill-opacity:1;" d="M 3.523438 12.78125 C 3.199219 12.617188 2.957031 12.453125 2.988281 12.425781 C 3.015625 12.394531 3.292969 12.402344 3.605469 12.445312 C 4.144531 12.503906 4.164062 12.527344 4.164062 12.808594 C 4.164062 12.972656 4.15625 13.09375 4.144531 13.085938 C 4.125 13.085938 3.851562 12.941406 3.523438 12.78125 Z M 3.523438 12.78125 "/>
<path style=" stroke:none;fill-rule:nonzero;fill:rgb(75.686276%,19.607843%,15.294118%);fill-opacity:1;" d="M 8.6875 27.226562 C 8.847656 26.441406 9.367188 25.132812 9.722656 24.574219 C 9.933594 24.25 10.636719 23.191406 11.285156 22.226562 C 13.683594 18.652344 14.71875 17.066406 14.648438 17.066406 C 14.609375 17.066406 14.058594 17.230469 13.417969 17.421875 C 12.789062 17.617188 12.179688 17.777344 12.078125 17.777344 C 11.945312 17.777344 11.886719 17.847656 11.886719 18.023438 C 11.886719 18.601562 11.765625 18.894531 11.519531 18.894531 C 11.308594 18.894531 11.296875 18.863281 11.386719 18.570312 C 11.4375 18.386719 11.480469 18.203125 11.480469 18.175781 C 11.480469 18.113281 10.859375 17.6875 10.617188 17.585938 C 10.382812 17.484375 8.339844 16.089844 6.269531 14.628906 C 5.050781 13.765625 3.921875 12.960938 3.757812 12.851562 C 3.332031 12.554688 3.382812 12.476562 3.929688 12.554688 C 4.429688 12.617188 5.078125 12.941406 5.078125 13.113281 C 5.078125 13.164062 5.152344 13.207031 5.230469 13.207031 C 5.324219 13.207031 5.414062 13.277344 5.445312 13.359375 C 5.546875 13.613281 5.6875 13.53125 5.6875 13.207031 C 5.6875 12.941406 5.730469 12.902344 5.953125 12.902344 C 6.269531 12.902344 7.933594 13.316406 10.921875 14.140625 C 14.589844 15.15625 14.769531 15.207031 15.15625 15.277344 L 15.523438 15.351562 L 15.5625 9.730469 C 15.582031 6.320312 15.632812 4.054688 15.695312 3.960938 C 15.746094 3.878906 15.808594 3.699219 15.828125 3.554688 C 15.886719 3.097656 16.0625 2.539062 16.140625 2.539062 C 16.265625 2.539062 16.476562 3.585938 16.367188 3.648438 C 16.101562 3.820312 16.019531 5.355469 16.011719 10.515625 C 16 13.492188 15.960938 15.828125 15.910156 15.859375 C 15.859375 15.898438 15.695312 15.886719 15.554688 15.847656 C 14.761719 15.605469 11.257812 14.820312 11.207031 14.871094 C 11.164062 14.902344 11.257812 15.066406 11.398438 15.21875 C 11.53125 15.371094 11.753906 15.632812 11.875 15.816406 C 12.160156 16.234375 12.984375 16.800781 13.277344 16.78125 C 13.398438 16.773438 14.007812 16.621094 14.628906 16.457031 C 15.25 16.285156 15.835938 16.171875 15.949219 16.203125 C 16.050781 16.234375 16.476562 16.800781 16.894531 17.453125 C 18.710938 20.335938 19.148438 21 20.195312 22.574219 C 20.816406 23.476562 21.507812 24.503906 21.738281 24.839844 C 22.277344 25.609375 22.785156 26.59375 22.714844 26.746094 C 22.683594 26.828125 22.664062 26.828125 22.664062 26.738281 C 22.652344 26.667969 22.613281 26.625 22.5625 26.667969 C 22.511719 26.695312 21.332031 25.8125 19.941406 24.707031 C 18.558594 23.609375 17.21875 22.542969 16.964844 22.359375 C 16.011719 21.636719 16.050781 21.789062 16.050781 19.148438 C 16.050781 16.824219 16.011719 16.355469 15.828125 16.355469 C 15.777344 16.355469 15.757812 16.394531 15.785156 16.445312 C 15.816406 16.496094 15.746094 16.648438 15.613281 16.78125 C 15.492188 16.925781 15.378906 17.097656 15.359375 17.179688 C 15.339844 17.25 15.105469 17.617188 14.832031 17.980469 C 14.566406 18.347656 14.007812 19.167969 13.613281 19.808594 C 13.207031 20.449219 12.636719 21.324219 12.34375 21.738281 C 9.984375 25.132812 8.828125 26.972656 8.898438 27.164062 C 8.929688 27.234375 8.867188 27.359375 8.777344 27.4375 C 8.625 27.5625 8.613281 27.550781 8.6875 27.226562 Z M 8.6875 27.226562 "/>
<path style=" stroke:none;fill-rule:nonzero;fill:rgb(75.686276%,19.607843%,15.294118%);fill-opacity:1;" d="M 16.691406 15.472656 C 16.894531 15.25 17.046875 15.046875 17.003906 15.015625 C 16.976562 14.972656 17.046875 14.902344 17.15625 14.832031 C 17.28125 14.769531 17.351562 14.679688 17.320312 14.628906 C 17.289062 14.578125 17.359375 14.488281 17.472656 14.425781 C 17.585938 14.363281 17.65625 14.273438 17.625 14.222656 C 17.59375 14.171875 17.667969 14.078125 17.777344 14.019531 C 17.890625 13.957031 17.960938 13.867188 17.929688 13.816406 C 17.898438 13.765625 17.972656 13.671875 18.082031 13.613281 C 18.195312 13.550781 18.265625 13.460938 18.234375 13.417969 C 18.203125 13.367188 18.253906 13.296875 18.347656 13.265625 C 18.429688 13.238281 18.480469 13.164062 18.4375 13.113281 C 18.40625 13.054688 18.480469 12.960938 18.601562 12.902344 C 18.710938 12.832031 18.785156 12.757812 18.753906 12.730469 C 18.632812 12.597656 19.066406 12.414062 19.535156 12.414062 C 19.941406 12.402344 20.011719 12.425781 20.011719 12.597656 C 20.011719 12.71875 19.941406 12.800781 19.839844 12.800781 C 19.503906 12.800781 19.097656 13.15625 18.449219 14.019531 C 18.082031 14.496094 17.808594 14.894531 17.828125 14.914062 C 17.847656 14.933594 18.429688 14.78125 19.117188 14.578125 C 19.800781 14.363281 21.027344 14.027344 21.839844 13.816406 C 22.652344 13.601562 23.933594 13.238281 24.6875 13.003906 C 25.730469 12.679688 26.28125 12.554688 26.972656 12.527344 C 27.5625 12.496094 27.84375 12.503906 27.785156 12.578125 C 27.734375 12.628906 27.042969 12.839844 26.261719 13.054688 C 25.476562 13.257812 24.675781 13.492188 24.484375 13.5625 C 24.148438 13.683594 22.777344 14.089844 21.890625 14.332031 C 21.667969 14.394531 21.304688 14.507812 21.078125 14.578125 C 20.855469 14.648438 20.488281 14.75 20.265625 14.8125 C 20.042969 14.871094 19.472656 15.035156 18.996094 15.175781 C 18.203125 15.410156 17.371094 15.625 16.609375 15.796875 L 16.304688 15.859375 Z M 16.691406 15.472656 "/>
<path style=" stroke:none;fill-rule:nonzero;fill:rgb(90.980393%,22.352941%,16.862746%);fill-opacity:1;" d="M 9.101562 25.882812 C 9.628906 24.25 10.644531 21.027344 10.921875 20.113281 C 11.113281 19.472656 11.335938 18.761719 11.417969 18.539062 C 11.570312 18.09375 11.539062 17.859375 11.316406 17.949219 C 11.207031 17.992188 11.195312 17.949219 11.265625 17.769531 C 11.328125 17.574219 11.4375 17.511719 11.753906 17.492188 C 12.121094 17.460938 12.199219 17.511719 12.730469 18.03125 C 13.042969 18.335938 13.378906 18.589844 13.460938 18.589844 C 13.542969 18.589844 13.621094 18.683594 13.632812 18.792969 C 13.683594 19.382812 13.671875 19.605469 13.613281 19.605469 C 13.550781 19.605469 12.757812 20.703125 12.445312 21.222656 C 12.394531 21.3125 12.222656 21.578125 12.058594 21.820312 C 11.90625 22.054688 11.804688 22.246094 11.855469 22.246094 C 11.894531 22.246094 11.855469 22.296875 11.753906 22.359375 C 11.664062 22.421875 11.601562 22.5 11.632812 22.550781 C 11.664062 22.59375 11.613281 22.664062 11.519531 22.695312 C 11.4375 22.726562 11.386719 22.796875 11.417969 22.847656 C 11.449219 22.898438 11.410156 22.96875 11.316406 23 C 11.234375 23.03125 11.183594 23.101562 11.214844 23.152344 C 11.246094 23.203125 11.207031 23.273438 11.113281 23.304688 C 11.03125 23.335938 10.980469 23.40625 11.011719 23.457031 C 11.042969 23.507812 11 23.578125 10.910156 23.609375 C 10.828125 23.640625 10.777344 23.710938 10.808594 23.761719 C 10.839844 23.8125 10.796875 23.882812 10.707031 23.914062 C 10.625 23.945312 10.585938 24.015625 10.617188 24.078125 C 10.644531 24.128906 10.636719 24.179688 10.574219 24.179688 C 10.523438 24.179688 10.1875 24.613281 9.84375 25.144531 C 9.253906 26.066406 8.941406 26.371094 9.101562 25.882812 Z M 9.101562 25.882812 "/>
<path style=" stroke:none;fill-rule:nonzero;fill:rgb(90.980393%,22.352941%,16.862746%);fill-opacity:1;" d="M 14.070312 15.390625 C 13.347656 15.199219 12.089844 14.863281 11.277344 14.628906 C 8.179688 13.753906 5.972656 13.214844 6.023438 13.347656 C 6.066406 13.441406 5.78125 13.398438 5.101562 13.207031 C 3.667969 12.820312 3.65625 12.820312 3.65625 12.636719 C 3.65625 12.527344 3.878906 12.496094 4.652344 12.484375 C 5.191406 12.476562 7.375 12.433594 9.488281 12.402344 L 13.339844 12.34375 L 13.46875 11.9375 C 13.542969 11.714844 13.765625 10.941406 13.957031 10.210938 C 14.160156 9.488281 14.488281 8.359375 14.679688 7.71875 C 14.882812 7.082031 15.199219 5.984375 15.378906 5.28125 C 15.695312 4.0625 15.878906 3.546875 15.980469 3.65625 C 16 3.6875 15.988281 4.214844 15.9375 4.824219 C 15.816406 6.511719 15.828125 15.238281 15.949219 15.238281 C 16.011719 15.238281 16.050781 15.351562 16.050781 15.492188 C 16.050781 15.714844 16.011719 15.746094 15.726562 15.734375 C 15.542969 15.734375 14.800781 15.574219 14.070312 15.390625 Z M 14.070312 15.390625 "/>
<path style=" stroke:none;fill-rule:nonzero;fill:rgb(90.980393%,22.352941%,16.862746%);fill-opacity:1;" d="M 24.179688 13.257812 C 24.179688 13.023438 24.136719 13.003906 23.71875 13.003906 C 23.304688 13.003906 23.261719 12.984375 23.261719 12.75 L 23.261719 12.496094 L 25.152344 12.496094 C 26.574219 12.496094 27.03125 12.527344 27 12.617188 C 26.972656 12.707031 24.585938 13.480469 24.257812 13.5 C 24.207031 13.511719 24.179688 13.398438 24.179688 13.257812 Z M 24.179688 13.257812 "/>
<path style=" stroke:none;fill-rule:nonzero;fill:rgb(83.92157%,21.176471%,15.686275%);fill-opacity:1;" d="M 9.042969 26.058594 C 9.144531 25.78125 9.285156 25.558594 9.347656 25.578125 C 9.40625 25.589844 9.425781 25.507812 9.398438 25.367188 C 9.355469 25.234375 9.40625 24.96875 9.488281 24.777344 C 9.578125 24.585938 9.628906 24.523438 9.601562 24.636719 C 9.4375 25.398438 9.425781 25.457031 9.558594 25.246094 C 9.792969 24.847656 10.363281 24.015625 10.789062 23.445312 C 11.5 22.5 11.996094 21.636719 12.058594 21.253906 C 12.097656 21.007812 12.324219 20.621094 12.6875 20.164062 C 13.003906 19.777344 13.289062 19.445312 13.316406 19.421875 C 13.441406 19.371094 13.277344 18.894531 13.144531 18.894531 C 13.0625 18.894531 12.75 18.640625 12.433594 18.335938 C 12.121094 18.03125 11.824219 17.777344 11.773438 17.777344 C 11.734375 17.777344 11.640625 17.859375 11.589844 17.960938 C 11.53125 18.050781 11.480469 18.082031 11.480469 18.011719 C 11.480469 17.941406 11.410156 17.910156 11.328125 17.941406 C 11.234375 17.980469 11.175781 17.941406 11.175781 17.859375 C 11.175781 17.777344 11.082031 17.625 10.972656 17.523438 C 10.636719 17.230469 10.738281 17.179688 11.316406 17.339844 L 11.867188 17.492188 L 13.59375 16.976562 C 14.546875 16.691406 15.371094 16.457031 15.429688 16.457031 C 15.492188 16.457031 15.429688 16.640625 15.289062 16.863281 C 15.148438 17.085938 15.035156 17.289062 15.035156 17.320312 C 15.035156 17.359375 14.902344 17.585938 14.730469 17.820312 C 14.566406 18.0625 14.464844 18.285156 14.496094 18.328125 C 14.539062 18.355469 14.507812 18.386719 14.445312 18.386719 C 14.3125 18.386719 13.683594 19.28125 13.683594 19.472656 C 13.683594 19.546875 13.652344 19.605469 13.613281 19.605469 C 13.519531 19.605469 11.867188 22.125 11.90625 22.195312 C 11.925781 22.238281 11.855469 22.308594 11.753906 22.359375 C 11.664062 22.421875 11.601562 22.5 11.632812 22.550781 C 11.664062 22.59375 11.613281 22.664062 11.519531 22.695312 C 11.4375 22.726562 11.386719 22.796875 11.417969 22.847656 C 11.449219 22.898438 11.410156 22.96875 11.316406 23 C 11.234375 23.03125 11.183594 23.101562 11.214844 23.152344 C 11.246094 23.203125 11.207031 23.273438 11.113281 23.304688 C 11.03125 23.335938 10.980469 23.40625 11.011719 23.457031 C 11.042969 23.507812 11 23.578125 10.910156 23.609375 C 10.828125 23.640625 10.777344 23.710938 10.808594 23.761719 C 10.839844 23.8125 10.796875 23.882812 10.707031 23.914062 C 10.625 23.945312 10.585938 24.015625 10.617188 24.078125 C 10.644531 24.128906 10.636719 24.179688 10.574219 24.179688 C 10.515625 24.179688 10.238281 24.542969 9.945312 24.992188 C 9.660156 25.4375 9.386719 25.78125 9.335938 25.742188 C 9.285156 25.710938 9.273438 25.753906 9.304688 25.832031 C 9.335938 25.914062 9.246094 26.109375 9.101562 26.269531 L 8.847656 26.566406 Z M 9.042969 26.058594 "/>
<path style=" stroke:none;fill-rule:nonzero;fill:rgb(83.92157%,21.176471%,15.686275%);fill-opacity:1;" d="M 14.121094 15.402344 C 11.652344 14.761719 8.511719 13.875 8.605469 13.847656 C 8.65625 13.824219 9.628906 14.070312 10.777344 14.382812 C 13.957031 15.269531 14.203125 15.328125 15.003906 15.480469 L 15.746094 15.625 L 15.765625 10.625 L 15.796875 5.636719 L 15.816406 10.441406 C 15.835938 13.519531 15.886719 15.238281 15.949219 15.238281 C 16.011719 15.238281 16.050781 15.351562 16.050781 15.492188 C 16.050781 15.714844 16.011719 15.746094 15.726562 15.734375 C 15.542969 15.734375 14.820312 15.582031 14.121094 15.402344 Z M 14.121094 15.402344 "/>
<path style=" stroke:none;fill-rule:nonzero;fill:rgb(83.92157%,21.176471%,15.686275%);fill-opacity:1;" d="M 17.027344 15.25 C 17.128906 15.105469 17.585938 14.476562 18.042969 13.855469 C 19.015625 12.554688 19.199219 12.445312 20.316406 12.445312 C 23.984375 12.445312 27.328125 12.503906 27.328125 12.578125 C 27.328125 12.628906 27.082031 12.71875 26.796875 12.789062 C 26.503906 12.871094 25.671875 13.105469 24.941406 13.328125 C 24.21875 13.550781 22.957031 13.90625 22.144531 14.121094 C 21.332031 14.332031 20.042969 14.691406 19.28125 14.914062 C 18.507812 15.148438 17.65625 15.371094 17.371094 15.421875 L 16.851562 15.511719 Z M 25.875 12.890625 C 26.3125 12.769531 26.6875 12.65625 26.707031 12.636719 C 26.726562 12.617188 26.027344 12.597656 25.144531 12.597656 C 24.257812 12.597656 23.558594 12.617188 23.578125 12.636719 C 23.597656 12.65625 23.964844 12.699219 24.382812 12.730469 C 25.273438 12.789062 25.195312 12.78125 25.195312 12.890625 C 25.195312 12.941406 25.113281 13.011719 25.019531 13.035156 C 24.917969 13.0625 24.898438 13.085938 24.960938 13.09375 C 25.03125 13.09375 25.449219 13.003906 25.875 12.890625 Z M 25.875 12.890625 "/>
<path style=" stroke:none;fill-rule:nonzero;fill:rgb(83.92157%,21.176471%,15.686275%);fill-opacity:1;" d="M 6.296875 14.34375 C 6.21875 14.3125 6.125 14.261719 6.09375 14.230469 C 5.984375 14.101562 5.40625 13.824219 5.355469 13.875 C 5.324219 13.90625 5.253906 13.835938 5.191406 13.722656 C 5.128906 13.613281 5.019531 13.542969 4.9375 13.570312 C 4.855469 13.601562 4.773438 13.53125 4.734375 13.390625 C 4.691406 13.214844 4.652344 13.1875 4.582031 13.289062 C 4.519531 13.390625 4.480469 13.367188 4.4375 13.207031 C 4.410156 13.085938 4.335938 13.011719 4.277344 13.054688 C 4.214844 13.085938 4.164062 13.0625 4.164062 13.011719 C 4.164062 12.953125 4.132812 12.910156 4.082031 12.921875 C 3.972656 12.953125 3.554688 12.699219 3.554688 12.597656 C 3.554688 12.535156 3.820312 12.503906 4.144531 12.503906 C 4.683594 12.527344 4.691406 12.527344 4.316406 12.585938 L 3.910156 12.65625 L 4.417969 12.707031 C 4.9375 12.769531 8.453125 13.722656 8.390625 13.785156 C 8.371094 13.804688 7.820312 13.695312 7.171875 13.53125 C 6.117188 13.257812 5.71875 13.246094 6.15625 13.492188 C 6.238281 13.542969 6.347656 13.753906 6.398438 13.96875 C 6.5 14.425781 6.5 14.414062 6.296875 14.34375 Z M 6.296875 14.34375 "/>
<path style=" stroke:none;fill-rule:nonzero;fill:rgb(83.92157%,21.176471%,15.686275%);fill-opacity:1;" d="M 15.867188 4.792969 C 15.859375 4.226562 15.816406 3.972656 15.734375 4.011719 C 15.664062 4.0625 15.664062 4.03125 15.734375 3.902344 C 15.785156 3.789062 15.867188 3.535156 15.898438 3.332031 C 15.960938 2.957031 16.164062 2.8125 16.304688 3.046875 C 16.335938 3.109375 16.304688 3.148438 16.214844 3.148438 C 16.101562 3.148438 16.050781 3.34375 16.011719 3.992188 C 15.886719 5.578125 15.878906 5.636719 15.867188 4.792969 Z M 15.867188 4.792969 "/>
<path style=" stroke:none;fill-rule:nonzero;fill:rgb(100%,100%,100%);fill-opacity:1;" d="M 16.070312 31.613281 L 15.746094 31.339844 L 16.089844 31.066406 L 16.425781 30.792969 L 16.699219 31.074219 L 16.964844 31.351562 L 16.691406 31.613281 L 16.40625 31.886719 Z M 16.070312 31.613281 "/>
<path style=" stroke:none;fill-rule:nonzero;fill:rgb(100%,100%,100%);fill-opacity:1;" d="M 20.417969 29.308594 C 20.417969 29.226562 20.46875 29.15625 20.519531 29.15625 C 20.582031 29.15625 20.621094 29.226562 20.621094 29.308594 C 20.621094 29.390625 20.582031 29.460938 20.519531 29.460938 C 20.46875 29.460938 20.417969 29.390625 20.417969 29.308594 Z M 20.417969 29.308594 "/>
<path style=" stroke:none;fill-rule:nonzero;fill:rgb(100%,100%,100%);fill-opacity:1;" d="M 12.851562 28.34375 C 12.78125 28.222656 12.871094 28.039062 13.011719 28.039062 C 13.136719 28.039062 13.136719 28.3125 13.011719 28.394531 C 12.960938 28.425781 12.890625 28.402344 12.851562 28.34375 Z M 12.851562 28.34375 "/>
<path style=" stroke:none;fill-rule:nonzero;fill:rgb(100%,100%,100%);fill-opacity:1;" d="M 16.222656 28.382812 C 16.191406 28.351562 16.191406 28.261719 16.222656 28.191406 C 16.285156 28.019531 16.558594 28.109375 16.558594 28.300781 C 16.558594 28.445312 16.34375 28.496094 16.222656 28.382812 Z M 16.222656 28.382812 "/>
<path style=" stroke:none;fill-rule:nonzero;fill:rgb(100%,100%,100%);fill-opacity:1;" d="M 5.789062 25.152344 C 5.789062 25.0625 5.863281 24.992188 5.953125 24.992188 C 6.125 24.992188 6.09375 25.214844 5.914062 25.273438 C 5.839844 25.296875 5.789062 25.246094 5.789062 25.152344 Z M 5.789062 25.152344 "/>
<path style=" stroke:none;fill-rule:nonzero;fill:rgb(100%,100%,100%);fill-opacity:1;" d="M 26.617188 24.941406 C 26.617188 24.859375 26.667969 24.789062 26.71875 24.789062 C 26.777344 24.789062 26.820312 24.859375 26.820312 24.941406 C 26.820312 25.019531 26.777344 25.09375 26.71875 25.09375 C 26.667969 25.09375 26.617188 25.019531 26.617188 24.941406 Z M 26.617188 24.941406 "/>
<path style=" stroke:none;fill-rule:nonzero;fill:rgb(100%,100%,100%);fill-opacity:1;" d="M 29.175781 24.359375 C 29.238281 24.179688 29.460938 24.148438 29.460938 24.320312 C 29.460938 24.410156 29.390625 24.484375 29.296875 24.484375 C 29.207031 24.484375 29.15625 24.433594 29.175781 24.359375 Z M 29.175781 24.359375 "/>
<path style=" stroke:none;fill-rule:nonzero;fill:rgb(100%,100%,100%);fill-opacity:1;" d="M 3.726562 21.992188 C 3.515625 21.476562 3.058594 21.050781 2.632812 20.957031 C 2.316406 20.898438 2.226562 20.722656 2.5 20.722656 C 2.761719 20.722656 3.421875 20.308594 3.546875 20.074219 C 3.605469 19.960938 3.707031 19.726562 3.769531 19.554688 L 3.878906 19.25 L 4.0625 19.636719 C 4.316406 20.195312 4.664062 20.511719 5.160156 20.640625 C 5.648438 20.765625 5.628906 20.824219 5.027344 21.019531 C 4.460938 21.210938 4.296875 21.382812 4.15625 21.953125 C 4.082031 22.226562 4.003906 22.449219 3.972656 22.449219 C 3.941406 22.449219 3.828125 22.246094 3.726562 21.992188 Z M 3.726562 21.992188 "/>
<path style=" stroke:none;fill-rule:nonzero;fill:rgb(100%,100%,100%);fill-opacity:1;" d="M 8.351562 20.09375 C 8.410156 19.910156 8.636719 19.878906 8.636719 20.054688 C 8.636719 20.144531 8.5625 20.214844 8.472656 20.214844 C 8.382812 20.214844 8.332031 20.164062 8.351562 20.09375 Z M 8.351562 20.09375 "/>
<path style=" stroke:none;fill-rule:nonzero;fill:rgb(100%,100%,100%);fill-opacity:1;" d="M 28.902344 19.515625 C 28.871094 19.414062 28.757812 19.25 28.648438 19.148438 C 28.453125 18.976562 28.453125 18.964844 28.75 18.671875 C 29.042969 18.386719 29.042969 18.378906 29.238281 18.570312 C 29.347656 18.683594 29.519531 18.8125 29.621094 18.875 C 29.785156 18.964844 29.765625 19.007812 29.410156 19.34375 C 29.195312 19.546875 29.011719 19.707031 28.992188 19.707031 C 28.984375 19.707031 28.941406 19.625 28.902344 19.515625 Z M 28.902344 19.515625 "/>
<path style=" stroke:none;fill-rule:nonzero;fill:rgb(100%,100%,100%);fill-opacity:1;" d="M 5.75 17.503906 C 5.636719 17.390625 5.6875 17.269531 5.839844 17.269531 C 5.921875 17.269531 5.992188 17.308594 5.992188 17.359375 C 5.992188 17.492188 5.832031 17.585938 5.75 17.503906 Z M 5.75 17.503906 "/>
<path style=" stroke:none;fill-rule:nonzero;fill:rgb(100%,100%,100%);fill-opacity:1;" d="M 5.078125 10.109375 C 5.078125 10.027344 5.152344 9.957031 5.230469 9.957031 C 5.3125 9.957031 5.382812 10.027344 5.382812 10.109375 C 5.382812 10.1875 5.3125 10.261719 5.230469 10.261719 C 5.152344 10.261719 5.078125 10.1875 5.078125 10.109375 Z M 5.078125 10.109375 "/>
<path style=" stroke:none;fill-rule:nonzero;fill:rgb(100%,100%,100%);fill-opacity:1;" d="M 11.226562 9.335938 C 11.125 9.183594 11.257812 9.082031 11.386719 9.214844 C 11.460938 9.285156 11.460938 9.347656 11.398438 9.386719 C 11.335938 9.417969 11.257812 9.398438 11.226562 9.335938 Z M 11.226562 9.335938 "/>
<path style=" stroke:none;fill-rule:nonzero;fill:rgb(100%,100%,100%);fill-opacity:1;" d="M 25.550781 8.433594 C 25.46875 8.269531 25.214844 8.027344 24.992188 7.902344 C 24.765625 7.769531 24.585938 7.648438 24.585938 7.617188 C 24.585938 7.578125 24.746094 7.496094 24.929688 7.4375 C 25.144531 7.355469 25.375 7.160156 25.5 6.957031 C 25.621094 6.765625 25.730469 6.601562 25.753906 6.601562 C 25.773438 6.601562 25.875 6.753906 25.984375 6.949219 C 26.097656 7.140625 26.320312 7.355469 26.472656 7.4375 C 26.871094 7.628906 26.871094 7.761719 26.472656 7.953125 C 26.28125 8.046875 26.046875 8.257812 25.957031 8.433594 C 25.875 8.59375 25.773438 8.738281 25.753906 8.738281 C 25.730469 8.738281 25.640625 8.605469 25.550781 8.433594 Z M 25.550781 8.433594 "/>
<path style=" stroke:none;fill-rule:nonzero;fill:rgb(100%,100%,100%);fill-opacity:1;" d="M 8.433594 8.320312 C 8.371094 8.207031 8.179688 8.035156 8.003906 7.921875 C 7.71875 7.75 7.710938 7.742188 7.914062 7.667969 C 8.027344 7.640625 8.21875 7.464844 8.339844 7.304688 L 8.554688 7.007812 L 8.816406 7.292969 C 8.96875 7.457031 9.152344 7.609375 9.234375 7.628906 C 9.347656 7.667969 9.265625 7.800781 8.960938 8.105469 C 8.554688 8.511719 8.535156 8.523438 8.433594 8.320312 Z M 8.433594 8.320312 "/>
<path style=" stroke:none;fill-rule:nonzero;fill:rgb(100%,100%,100%);fill-opacity:1;" d="M 6.460938 6.023438 C 6.347656 5.914062 6.398438 5.789062 6.550781 5.789062 C 6.632812 5.789062 6.703125 5.832031 6.703125 5.882812 C 6.703125 6.015625 6.542969 6.105469 6.460938 6.023438 Z M 6.460938 6.023438 "/>
<path style=" stroke:none;fill-rule:nonzero;fill:rgb(100%,100%,100%);fill-opacity:1;" d="M 10.820312 3.960938 C 10.777344 3.902344 10.789062 3.800781 10.847656 3.738281 C 10.910156 3.675781 10.972656 3.675781 11.023438 3.757812 C 11.0625 3.820312 11.050781 3.921875 10.992188 3.980469 C 10.929688 4.042969 10.871094 4.042969 10.820312 3.960938 Z M 10.820312 3.960938 "/>
<path style=" stroke:none;fill-rule:nonzero;fill:rgb(100%,100%,100%);fill-opacity:1;" d="M 20.316406 3.148438 C 20.316406 3.097656 20.386719 3.046875 20.46875 3.046875 C 20.550781 3.046875 20.621094 3.097656 20.621094 3.148438 C 20.621094 3.210938 20.550781 3.25 20.46875 3.25 C 20.386719 3.25 20.316406 3.210938 20.316406 3.148438 Z M 20.316406 3.148438 "/>
</g>
</svg>
